<mxfile host="app.diagrams.net" agent="Mozilla/5.0 (Windows NT 10.0; Win64; x64) AppleWebKit/537.36 (KHTML, like Gecko) Chrome/127.0.0.0 Safari/537.36" version="24.7.7">
  <diagram id="R2lEEEUBdFMjLlhIrx00" name="Page-1">
    <mxGraphModel dx="487" dy="927" grid="1" gridSize="10" guides="1" tooltips="1" connect="1" arrows="1" fold="1" page="1" pageScale="1" pageWidth="1600" pageHeight="900" math="0" shadow="0" extFonts="Permanent Marker^https://fonts.googleapis.com/css?family=Permanent+Marker">
      <root>
        <mxCell id="0" />
        <mxCell id="1" parent="0" />
        <mxCell id="BN0-aAmPABuchmEnCktR-3" value="Prenotazione" style="swimlane;childLayout=stackLayout;horizontal=1;startSize=50;horizontalStack=0;rounded=1;fontSize=14;fontStyle=0;strokeWidth=2;resizeParent=0;resizeLast=1;shadow=0;dashed=0;align=center;arcSize=4;whiteSpace=wrap;html=1;" parent="1" vertex="1">
          <mxGeometry x="1070" y="550" width="160" height="120" as="geometry" />
        </mxCell>
        <mxCell id="BN0-aAmPABuchmEnCktR-4" value="PK booking_ID&lt;div&gt;FK user_ID&lt;/div&gt;&lt;div&gt;FK projection_ID&lt;/div&gt;&lt;div&gt;seats&lt;/div&gt;" style="align=left;strokeColor=none;fillColor=none;spacingLeft=4;fontSize=12;verticalAlign=top;resizable=0;rotatable=0;part=1;html=1;" parent="BN0-aAmPABuchmEnCktR-3" vertex="1">
          <mxGeometry y="50" width="160" height="70" as="geometry" />
        </mxCell>
        <mxCell id="BN0-aAmPABuchmEnCktR-5" value="Recensione" style="swimlane;childLayout=stackLayout;horizontal=1;startSize=50;horizontalStack=0;rounded=1;fontSize=14;fontStyle=0;strokeWidth=2;resizeParent=0;resizeLast=1;shadow=0;dashed=0;align=center;arcSize=4;whiteSpace=wrap;html=1;" parent="1" vertex="1">
          <mxGeometry x="690" y="470" width="160" height="150" as="geometry" />
        </mxCell>
        <mxCell id="BN0-aAmPABuchmEnCktR-6" value="PK review_ID&lt;div&gt;FK user_ID&lt;br&gt;FK movie_ID&lt;div&gt;rating&lt;/div&gt;&lt;div&gt;comment&lt;/div&gt;&lt;div&gt;rewiew_date&lt;/div&gt;&lt;/div&gt;" style="align=left;strokeColor=none;fillColor=none;spacingLeft=4;fontSize=12;verticalAlign=top;resizable=0;rotatable=0;part=1;html=1;" parent="BN0-aAmPABuchmEnCktR-5" vertex="1">
          <mxGeometry y="50" width="160" height="100" as="geometry" />
        </mxCell>
        <mxCell id="BN0-aAmPABuchmEnCktR-7" value="Proiezione" style="swimlane;childLayout=stackLayout;horizontal=1;startSize=50;horizontalStack=0;rounded=1;fontSize=14;fontStyle=0;strokeWidth=2;resizeParent=0;resizeLast=1;shadow=0;dashed=0;align=center;arcSize=4;whiteSpace=wrap;html=1;" parent="1" vertex="1">
          <mxGeometry x="90" y="490" width="160" height="150" as="geometry" />
        </mxCell>
        <mxCell id="BN0-aAmPABuchmEnCktR-8" value="PK Projection_ID&lt;div&gt;FK Movie_ID&lt;/div&gt;&lt;div&gt;projection_date&lt;/div&gt;&lt;div&gt;hall&lt;/div&gt;&lt;div&gt;projection_time&lt;/div&gt;&lt;div&gt;avaiable_seat&lt;/div&gt;" style="align=left;strokeColor=none;fillColor=none;spacingLeft=4;fontSize=12;verticalAlign=top;resizable=0;rotatable=0;part=1;html=1;" parent="BN0-aAmPABuchmEnCktR-7" vertex="1">
          <mxGeometry y="50" width="160" height="100" as="geometry" />
        </mxCell>
        <mxCell id="BN0-aAmPABuchmEnCktR-11" value="FIlm" style="swimlane;childLayout=stackLayout;horizontal=1;startSize=50;horizontalStack=0;rounded=1;fontSize=14;fontStyle=0;strokeWidth=2;resizeParent=0;resizeLast=1;shadow=0;dashed=0;align=center;arcSize=4;whiteSpace=wrap;html=1;" parent="1" vertex="1">
          <mxGeometry x="100" y="50" width="160" height="150" as="geometry" />
        </mxCell>
        <mxCell id="BN0-aAmPABuchmEnCktR-12" value="PK movie_ID&lt;br&gt;title&lt;br&gt;description&lt;div&gt;release_date&lt;/div&gt;&lt;div&gt;gnre&lt;/div&gt;&lt;div&gt;duration&lt;br&gt;&lt;div&gt;&lt;br&gt;&lt;/div&gt;&lt;/div&gt;" style="align=left;strokeColor=none;fillColor=none;spacingLeft=4;fontSize=12;verticalAlign=top;resizable=0;rotatable=0;part=1;html=1;" parent="BN0-aAmPABuchmEnCktR-11" vertex="1">
          <mxGeometry y="50" width="160" height="100" as="geometry" />
        </mxCell>
        <mxCell id="BN0-aAmPABuchmEnCktR-13" value="Sala" style="swimlane;childLayout=stackLayout;horizontal=1;startSize=50;horizontalStack=0;rounded=1;fontSize=14;fontStyle=0;strokeWidth=2;resizeParent=0;resizeLast=1;shadow=0;dashed=0;align=center;arcSize=4;whiteSpace=wrap;html=1;" parent="1" vertex="1">
          <mxGeometry x="1080" y="200" width="150" height="100" as="geometry" />
        </mxCell>
        <mxCell id="BN0-aAmPABuchmEnCktR-14" value="PK hall_ID&lt;div&gt;name&lt;/div&gt;&lt;div&gt;capacity&lt;/div&gt;" style="align=left;strokeColor=none;fillColor=none;spacingLeft=4;fontSize=12;verticalAlign=top;resizable=0;rotatable=0;part=1;html=1;" parent="BN0-aAmPABuchmEnCktR-13" vertex="1">
          <mxGeometry y="50" width="150" height="50" as="geometry" />
        </mxCell>
        <mxCell id="BN0-aAmPABuchmEnCktR-22" value="Utente" style="swimlane;childLayout=stackLayout;horizontal=1;startSize=50;horizontalStack=0;rounded=1;fontSize=14;fontStyle=0;strokeWidth=2;resizeParent=0;resizeLast=1;shadow=0;dashed=0;align=center;arcSize=4;whiteSpace=wrap;html=1;" parent="1" vertex="1">
          <mxGeometry x="410" y="40" width="160" height="160" as="geometry" />
        </mxCell>
        <mxCell id="BN0-aAmPABuchmEnCktR-23" value="&lt;div&gt;PK user_ID&lt;/div&gt;Nome&lt;br&gt;cognome&lt;div&gt;email&lt;/div&gt;&lt;div&gt;password&lt;/div&gt;&lt;div&gt;genere_pref&lt;/div&gt;&lt;div&gt;user_type&lt;/div&gt;&lt;div&gt;&lt;br&gt;&lt;/div&gt;&lt;div&gt;&lt;br&gt;&lt;/div&gt;" style="align=left;strokeColor=none;fillColor=none;spacingLeft=4;fontSize=12;verticalAlign=top;resizable=0;rotatable=0;part=1;html=1;" parent="BN0-aAmPABuchmEnCktR-22" vertex="1">
          <mxGeometry y="50" width="160" height="110" as="geometry" />
        </mxCell>
        <mxCell id="Od_ACyzgD8yDXcaiQ_Rq-2" value="INCLUSO" style="shape=rhombus;perimeter=rhombusPerimeter;whiteSpace=wrap;html=1;align=center;" vertex="1" parent="1">
          <mxGeometry x="110" y="320" width="120" height="60" as="geometry" />
        </mxCell>
        <mxCell id="Od_ACyzgD8yDXcaiQ_Rq-3" value="SCRITTA" style="shape=rhombus;perimeter=rhombusPerimeter;whiteSpace=wrap;html=1;align=center;" vertex="1" parent="1">
          <mxGeometry x="430" y="380" width="120" height="60" as="geometry" />
        </mxCell>
        <mxCell id="Od_ACyzgD8yDXcaiQ_Rq-4" value="RIFERITA" style="shape=rhombus;perimeter=rhombusPerimeter;whiteSpace=wrap;html=1;align=center;" vertex="1" parent="1">
          <mxGeometry x="410" y="550" width="120" height="60" as="geometry" />
        </mxCell>
        <mxCell id="Od_ACyzgD8yDXcaiQ_Rq-5" value="EFFETTUA" style="shape=rhombus;perimeter=rhombusPerimeter;whiteSpace=wrap;html=1;align=center;" vertex="1" parent="1">
          <mxGeometry x="870" y="350" width="120" height="60" as="geometry" />
        </mxCell>
        <mxCell id="Od_ACyzgD8yDXcaiQ_Rq-6" value="CONTIENE" style="shape=rhombus;perimeter=rhombusPerimeter;whiteSpace=wrap;html=1;align=center;" vertex="1" parent="1">
          <mxGeometry x="840" y="80" width="120" height="60" as="geometry" />
        </mxCell>
        <mxCell id="Od_ACyzgD8yDXcaiQ_Rq-7" value="" style="endArrow=none;html=1;rounded=0;exitX=0.5;exitY=0;exitDx=0;exitDy=0;entryX=0.437;entryY=0.993;entryDx=0;entryDy=0;entryPerimeter=0;" edge="1" parent="1" source="Od_ACyzgD8yDXcaiQ_Rq-2" target="BN0-aAmPABuchmEnCktR-12">
          <mxGeometry relative="1" as="geometry">
            <mxPoint x="110" y="280" as="sourcePoint" />
            <mxPoint x="270" y="280" as="targetPoint" />
          </mxGeometry>
        </mxCell>
        <mxCell id="Od_ACyzgD8yDXcaiQ_Rq-32" value="(0-n)" style="edgeLabel;html=1;align=center;verticalAlign=middle;resizable=0;points=[];" vertex="1" connectable="0" parent="Od_ACyzgD8yDXcaiQ_Rq-7">
          <mxGeometry x="-0.1052" y="-3" relative="1" as="geometry">
            <mxPoint as="offset" />
          </mxGeometry>
        </mxCell>
        <mxCell id="Od_ACyzgD8yDXcaiQ_Rq-8" value="" style="endArrow=none;html=1;rounded=0;exitX=0.5;exitY=1;exitDx=0;exitDy=0;entryX=0.5;entryY=0;entryDx=0;entryDy=0;" edge="1" parent="1" source="Od_ACyzgD8yDXcaiQ_Rq-2" target="BN0-aAmPABuchmEnCktR-7">
          <mxGeometry relative="1" as="geometry">
            <mxPoint x="120" y="420" as="sourcePoint" />
            <mxPoint x="280" y="420" as="targetPoint" />
          </mxGeometry>
        </mxCell>
        <mxCell id="Od_ACyzgD8yDXcaiQ_Rq-31" value="(1-1)" style="edgeLabel;html=1;align=center;verticalAlign=middle;resizable=0;points=[];" vertex="1" connectable="0" parent="Od_ACyzgD8yDXcaiQ_Rq-8">
          <mxGeometry x="-0.2675" y="1" relative="1" as="geometry">
            <mxPoint as="offset" />
          </mxGeometry>
        </mxCell>
        <mxCell id="Od_ACyzgD8yDXcaiQ_Rq-11" value="" style="endArrow=none;html=1;rounded=0;entryX=0.5;entryY=0;entryDx=0;entryDy=0;exitX=0.5;exitY=1;exitDx=0;exitDy=0;" edge="1" parent="1" source="BN0-aAmPABuchmEnCktR-23" target="Od_ACyzgD8yDXcaiQ_Rq-3">
          <mxGeometry relative="1" as="geometry">
            <mxPoint x="470" y="290" as="sourcePoint" />
            <mxPoint x="630" y="290" as="targetPoint" />
            <Array as="points">
              <mxPoint x="490" y="290" />
            </Array>
          </mxGeometry>
        </mxCell>
        <mxCell id="Od_ACyzgD8yDXcaiQ_Rq-28" value="(1-n)" style="edgeLabel;html=1;align=center;verticalAlign=middle;resizable=0;points=[];" vertex="1" connectable="0" parent="Od_ACyzgD8yDXcaiQ_Rq-11">
          <mxGeometry x="-0.1873" relative="1" as="geometry">
            <mxPoint as="offset" />
          </mxGeometry>
        </mxCell>
        <mxCell id="Od_ACyzgD8yDXcaiQ_Rq-12" value="" style="endArrow=none;html=1;rounded=0;exitX=1;exitY=0.5;exitDx=0;exitDy=0;entryX=0.5;entryY=0;entryDx=0;entryDy=0;" edge="1" parent="1" source="Od_ACyzgD8yDXcaiQ_Rq-3" target="BN0-aAmPABuchmEnCktR-5">
          <mxGeometry relative="1" as="geometry">
            <mxPoint x="610" y="400" as="sourcePoint" />
            <mxPoint x="770" y="400" as="targetPoint" />
            <Array as="points">
              <mxPoint x="770" y="410" />
            </Array>
          </mxGeometry>
        </mxCell>
        <mxCell id="Od_ACyzgD8yDXcaiQ_Rq-13" value="(1-1)" style="edgeLabel;html=1;align=center;verticalAlign=middle;resizable=0;points=[];" vertex="1" connectable="0" parent="Od_ACyzgD8yDXcaiQ_Rq-12">
          <mxGeometry x="-0.1186" y="-2" relative="1" as="geometry">
            <mxPoint x="-1" as="offset" />
          </mxGeometry>
        </mxCell>
        <mxCell id="Od_ACyzgD8yDXcaiQ_Rq-14" value="" style="endArrow=none;html=1;rounded=0;exitX=1;exitY=0.25;exitDx=0;exitDy=0;entryX=0.5;entryY=0;entryDx=0;entryDy=0;" edge="1" parent="1" source="BN0-aAmPABuchmEnCktR-23" target="Od_ACyzgD8yDXcaiQ_Rq-5">
          <mxGeometry relative="1" as="geometry">
            <mxPoint x="730" y="290" as="sourcePoint" />
            <mxPoint x="890" y="290" as="targetPoint" />
            <Array as="points">
              <mxPoint x="630" y="118" />
              <mxPoint x="630" y="200" />
              <mxPoint x="930" y="200" />
            </Array>
          </mxGeometry>
        </mxCell>
        <mxCell id="Od_ACyzgD8yDXcaiQ_Rq-34" value="(1-n)" style="edgeLabel;html=1;align=center;verticalAlign=middle;resizable=0;points=[];" vertex="1" connectable="0" parent="Od_ACyzgD8yDXcaiQ_Rq-14">
          <mxGeometry x="-0.0938" y="1" relative="1" as="geometry">
            <mxPoint as="offset" />
          </mxGeometry>
        </mxCell>
        <mxCell id="Od_ACyzgD8yDXcaiQ_Rq-15" value="" style="endArrow=none;html=1;rounded=0;exitX=0.5;exitY=1;exitDx=0;exitDy=0;entryX=0.5;entryY=0;entryDx=0;entryDy=0;" edge="1" parent="1" source="Od_ACyzgD8yDXcaiQ_Rq-5" target="BN0-aAmPABuchmEnCktR-3">
          <mxGeometry relative="1" as="geometry">
            <mxPoint x="980" y="440" as="sourcePoint" />
            <mxPoint x="1140" y="440" as="targetPoint" />
            <Array as="points">
              <mxPoint x="930" y="510" />
              <mxPoint x="1150" y="510" />
            </Array>
          </mxGeometry>
        </mxCell>
        <mxCell id="Od_ACyzgD8yDXcaiQ_Rq-33" value="(1-1)" style="edgeLabel;html=1;align=center;verticalAlign=middle;resizable=0;points=[];" vertex="1" connectable="0" parent="Od_ACyzgD8yDXcaiQ_Rq-15">
          <mxGeometry x="0.1675" y="3" relative="1" as="geometry">
            <mxPoint as="offset" />
          </mxGeometry>
        </mxCell>
        <mxCell id="Od_ACyzgD8yDXcaiQ_Rq-21" value="" style="endArrow=none;html=1;rounded=0;exitX=1;exitY=0.5;exitDx=0;exitDy=0;entryX=0.003;entryY=0.601;entryDx=0;entryDy=0;entryPerimeter=0;" edge="1" parent="1" source="Od_ACyzgD8yDXcaiQ_Rq-4" target="BN0-aAmPABuchmEnCktR-6">
          <mxGeometry relative="1" as="geometry">
            <mxPoint x="560" y="660" as="sourcePoint" />
            <mxPoint x="720" y="660" as="targetPoint" />
          </mxGeometry>
        </mxCell>
        <mxCell id="Od_ACyzgD8yDXcaiQ_Rq-29" value="(1-1)" style="edgeLabel;html=1;align=center;verticalAlign=middle;resizable=0;points=[];" vertex="1" connectable="0" parent="Od_ACyzgD8yDXcaiQ_Rq-21">
          <mxGeometry x="-0.0725" y="4" relative="1" as="geometry">
            <mxPoint as="offset" />
          </mxGeometry>
        </mxCell>
        <mxCell id="Od_ACyzgD8yDXcaiQ_Rq-23" value="" style="endArrow=none;html=1;rounded=0;entryX=0;entryY=0.5;entryDx=0;entryDy=0;exitX=0.938;exitY=0.4;exitDx=0;exitDy=0;exitPerimeter=0;" edge="1" parent="1" source="BN0-aAmPABuchmEnCktR-8" target="Od_ACyzgD8yDXcaiQ_Rq-4">
          <mxGeometry relative="1" as="geometry">
            <mxPoint x="320" y="670" as="sourcePoint" />
            <mxPoint x="480" y="670" as="targetPoint" />
          </mxGeometry>
        </mxCell>
        <mxCell id="Od_ACyzgD8yDXcaiQ_Rq-30" value="(0-n)" style="edgeLabel;html=1;align=center;verticalAlign=middle;resizable=0;points=[];" vertex="1" connectable="0" parent="Od_ACyzgD8yDXcaiQ_Rq-23">
          <mxGeometry x="0.0903" y="1" relative="1" as="geometry">
            <mxPoint as="offset" />
          </mxGeometry>
        </mxCell>
        <mxCell id="Od_ACyzgD8yDXcaiQ_Rq-24" value="" style="endArrow=none;html=1;rounded=0;exitX=1;exitY=0.5;exitDx=0;exitDy=0;entryX=0.5;entryY=0;entryDx=0;entryDy=0;" edge="1" parent="1" source="Od_ACyzgD8yDXcaiQ_Rq-6" target="BN0-aAmPABuchmEnCktR-13">
          <mxGeometry relative="1" as="geometry">
            <mxPoint x="1030" y="130" as="sourcePoint" />
            <mxPoint x="1190" y="130" as="targetPoint" />
            <Array as="points">
              <mxPoint x="1155" y="110" />
            </Array>
          </mxGeometry>
        </mxCell>
        <mxCell id="Od_ACyzgD8yDXcaiQ_Rq-27" value="(0-n)" style="edgeLabel;html=1;align=center;verticalAlign=middle;resizable=0;points=[];" vertex="1" connectable="0" parent="Od_ACyzgD8yDXcaiQ_Rq-24">
          <mxGeometry x="0.6655" y="-2" relative="1" as="geometry">
            <mxPoint as="offset" />
          </mxGeometry>
        </mxCell>
        <mxCell id="Od_ACyzgD8yDXcaiQ_Rq-25" value="" style="endArrow=none;html=1;rounded=0;entryX=0;entryY=0.5;entryDx=0;entryDy=0;exitX=1;exitY=0;exitDx=0;exitDy=0;" edge="1" parent="1" source="BN0-aAmPABuchmEnCktR-8" target="Od_ACyzgD8yDXcaiQ_Rq-6">
          <mxGeometry relative="1" as="geometry">
            <mxPoint x="620" y="70" as="sourcePoint" />
            <mxPoint x="780" y="70" as="targetPoint" />
            <Array as="points">
              <mxPoint x="280" y="540" />
              <mxPoint x="280" y="460" />
              <mxPoint x="280" y="110" />
              <mxPoint x="280" y="20" />
              <mxPoint x="500" y="20" />
              <mxPoint x="840" y="20" />
            </Array>
          </mxGeometry>
        </mxCell>
        <mxCell id="Od_ACyzgD8yDXcaiQ_Rq-26" value="(1-1)" style="edgeLabel;html=1;align=center;verticalAlign=middle;resizable=0;points=[];" vertex="1" connectable="0" parent="Od_ACyzgD8yDXcaiQ_Rq-25">
          <mxGeometry x="-0.6083" y="-1" relative="1" as="geometry">
            <mxPoint as="offset" />
          </mxGeometry>
        </mxCell>
      </root>
    </mxGraphModel>
  </diagram>
</mxfile>
